<svg width="41" height="41" viewBox="0 0 41 41" fill="none" xmlns="http://www.w3.org/2000/svg">
<path d="M20.5 39.75C31.2696 39.75 40 31.0196 40 20.25C40 17.5603 39.4555 14.9978 38.4705 12.6667M20.5 39.75C9.73045 39.75 1 31.0196 1 20.25C1 17.5603 1.54457 14.9977 2.52947 12.6666M20.5 39.75C25.726 36.2519 29.1667 27.0109 29.1667 20.25C29.1667 13.4891 25.726 4.24813 20.5 0.75M20.5 39.75C15.2741 36.2519 11.8333 27.0109 11.8333 20.25C11.8333 13.4891 15.2741 4.24813 20.5 0.75M38.4705 12.6667C35.512 5.66413 28.5799 0.75 20.5 0.75M38.4705 12.6667C35.512 19.6691 28.5799 24.5833 20.5 24.5833C12.4202 24.5833 5.4881 19.6691 2.52947 12.6666M2.52947 12.6666C5.4881 5.66411 12.4202 0.75 20.5 0.75" stroke="#F0DDDD" stroke-width="1.25" stroke-linejoin="round"/>
</svg>
