<svg width="52" height="53" viewBox="0 0 52 53" fill="none" xmlns="http://www.w3.org/2000/svg">
<path fill-rule="evenodd" clip-rule="evenodd" d="M19.8917 9.23252C20.0155 9.10597 20.1626 9.00558 20.3246 8.93708C20.4866 8.86857 20.6602 8.83331 20.8356 8.83331C21.0109 8.83331 21.1846 8.86857 21.3465 8.93708C21.5085 9.00558 21.6556 9.10597 21.7794 9.23252L37.7776 25.5383C37.9017 25.6645 38.0002 25.8145 38.0674 25.9795C38.1346 26.1446 38.1692 26.3216 38.1692 26.5003C38.1692 26.6791 38.1346 26.856 38.0674 27.0211C38.0002 27.1862 37.9017 27.3362 37.7776 27.4624L21.7794 43.7682C21.5291 44.0233 21.1896 44.1666 20.8356 44.1666C20.4815 44.1666 20.142 44.0233 19.8917 43.7682C19.6413 43.513 19.5007 43.167 19.5007 42.8061C19.5007 42.4453 19.6413 42.0992 19.8917 41.8441L34.9486 26.5003L19.8917 11.1566C19.7675 11.0304 19.669 10.8804 19.6018 10.7153C19.5346 10.5503 19.5 10.3733 19.5 10.1946C19.5 10.0158 19.5346 9.83885 19.6018 9.67377C19.669 9.50869 19.7675 9.35874 19.8917 9.23252V9.23252Z" fill="#FBF4F4"/>
</svg>
