<svg width="54" height="52" viewBox="0 0 54 52" fill="none" xmlns="http://www.w3.org/2000/svg">
<path d="M44.4645 15.1667C44.8319 13.2327 44.9554 11.5525 44.9894 10.3875C45.0085 9.73028 45.018 9.40171 44.7968 9.10483C44.7338 9.02035 44.6267 8.91733 44.5392 8.85668C44.2307 8.6435 43.891 8.65265 43.2112 8.67093C39.7822 8.76315 32.0452 9.54709 26.1985 14.4226C25.9366 14.6411 25.8057 14.7503 25.6707 14.8128C25.6234 14.8348 25.5825 14.8507 25.5328 14.8664C25.3903 14.9113 25.231 14.9193 24.9122 14.9352L15.9384 15.385C12.7964 15.5425 10.3327 18.0416 10.3327 21.0714C10.3327 24.1217 12.8288 26.6301 15.9936 26.7603L18.1695 26.8498C18.3087 26.8554 18.3783 26.8582 18.445 26.8688C18.6321 26.8983 18.8083 26.9728 18.9575 27.0857C19.0106 27.1258 19.0599 27.1732 19.1584 27.2681L25.677 33.5452C25.7755 33.6401 25.8248 33.6876 25.8664 33.7387C25.9834 33.8823 26.0611 34.0522 26.0917 34.2322C26.1027 34.2964 26.1056 34.3635 26.1115 34.4977L26.2044 36.5928C26.3394 39.6405 28.9444 42.0442 32.112 42.0442C35.2584 42.0442 37.8535 39.6717 38.0171 36.6461L38.4842 28.0046C38.5009 27.6976 38.5092 27.544 38.5558 27.407C38.5722 27.3589 38.5886 27.3195 38.6113 27.274C38.6764 27.1442 38.7895 27.0183 39.0157 26.767C39.8371 25.8537 40.5466 24.8924 41.1595 23.9087M18.0424 40.8261C15.8029 42.9828 12.5054 43.3294 10.599 43.3271C10.0392 43.3262 9.75928 43.326 9.46412 43.1193C9.38596 43.0647 9.27247 42.9553 9.21565 42.8801C9.00109 42.5958 9.00073 42.3263 9.00001 41.7872C8.99754 39.9514 9.35756 36.7761 11.597 34.6194C11.7103 34.5104 11.8289 34.4034 11.9518 34.2992C13.619 32.8833 16.0697 33.4919 17.6415 35.0055C19.2133 36.5192 19.8453 38.8791 18.3751 40.4846C18.2667 40.6029 18.1557 40.7171 18.0424 40.8261ZM27.1773 21.9958C26.0802 23.0522 26.0802 24.7652 27.1773 25.8219C28.2746 26.8784 30.0535 26.8784 31.1506 25.8219C32.2479 24.7652 32.2479 23.0522 31.1506 21.9958C30.0535 20.9391 28.2746 20.9391 27.1773 21.9958Z" stroke="#F0DDDD" stroke-width="1.25" stroke-linecap="round" stroke-linejoin="round"/>
</svg>
