<svg width="103" height="57" viewBox="0 0 103 57" fill="none" xmlns="http://www.w3.org/2000/svg">
<path fill-rule="evenodd" clip-rule="evenodd" d="M39.6512 9.89201C39.8955 9.75643 40.1858 9.64886 40.5053 9.57547C40.8249 9.50207 41.1675 9.46429 41.5134 9.46429C41.8594 9.46429 42.202 9.50207 42.5216 9.57547C42.8411 9.64886 43.1314 9.75643 43.3757 9.89201L74.9396 27.3625C75.1845 27.4977 75.3789 27.6584 75.5115 27.8353C75.6441 28.0121 75.7123 28.2017 75.7123 28.3932C75.7123 28.5847 75.6441 28.7744 75.5115 28.9512C75.3789 29.1281 75.1845 29.2888 74.9396 29.424L43.3757 46.8945C42.8818 47.1679 42.2119 47.3214 41.5134 47.3214C40.815 47.3214 40.1451 47.1679 39.6512 46.8945C39.1573 46.6211 38.8798 46.2503 38.8798 45.8637C38.8798 45.4771 39.1573 45.1063 39.6512 44.833L69.358 28.3932L39.6512 11.9535C39.4062 11.8183 39.2119 11.6576 39.0793 11.4808C38.9467 11.3039 38.8784 11.1143 38.8784 10.9228C38.8784 10.7313 38.9467 10.5417 39.0793 10.3648C39.2119 10.1879 39.4062 10.0273 39.6512 9.89201Z" fill="#FBF4F4"/>
</svg>
