<svg width="86" height="86" viewBox="0 0 86 86" fill="none" xmlns="http://www.w3.org/2000/svg">
<path fill-rule="evenodd" clip-rule="evenodd" d="M47.1082 14.9811C47.2582 14.7758 47.4364 14.6129 47.6326 14.5017C47.8288 14.3905 48.0391 14.3333 48.2515 14.3333C48.4639 14.3333 48.6742 14.3905 48.8704 14.5017C49.0666 14.6129 49.2448 14.7758 49.3948 14.9811L68.7728 41.4395C68.9232 41.6443 69.0425 41.8876 69.1239 42.1555C69.2053 42.4234 69.2472 42.7106 69.2472 43.0006C69.2472 43.2906 69.2053 43.5778 69.1239 43.8456C69.0425 44.1135 68.9232 44.3568 68.7728 44.5616L49.3948 71.0201C49.0916 71.4341 48.6803 71.6667 48.2515 71.6667C47.8227 71.6667 47.4114 71.4341 47.1082 71.0201C46.805 70.606 46.6346 70.0445 46.6346 69.459C46.6346 68.8735 46.805 68.312 47.1082 67.898L65.3461 43.0006L47.1082 18.1032C46.9578 17.8984 46.8385 17.6551 46.7571 17.3872C46.6757 17.1193 46.6338 16.8322 46.6338 16.5421C46.6338 16.2521 46.6757 15.965 46.7571 15.6971C46.8385 15.4292 46.9578 15.1859 47.1082 14.9811Z" fill="#FAEAEA"/>
<path fill-rule="evenodd" clip-rule="evenodd" d="M24.0942 14.9811C24.2442 14.7758 24.4224 14.6129 24.6186 14.5017C24.8147 14.3905 25.0251 14.3333 25.2375 14.3333C25.4499 14.3333 25.6602 14.3905 25.8564 14.5017C26.0526 14.6129 26.2308 14.7758 26.3808 14.9811L45.7588 41.4395C45.9092 41.6443 46.0285 41.8876 46.1099 42.1555C46.1913 42.4234 46.2332 42.7106 46.2332 43.0006C46.2332 43.2906 46.1913 43.5778 46.1099 43.8456C46.0285 44.1135 45.9092 44.3568 45.7588 44.5616L26.3808 71.0201C26.0776 71.4341 25.6663 71.6667 25.2375 71.6667C24.8086 71.6667 24.3974 71.4341 24.0942 71.0201C23.7909 70.606 23.6206 70.0445 23.6206 69.459C23.6206 68.8735 23.7909 68.312 24.0942 67.898L42.3321 43.0006L24.0942 18.1032C23.9438 17.8984 23.8245 17.6551 23.7431 17.3872C23.6617 17.1193 23.6198 16.8322 23.6198 16.5421C23.6198 16.2521 23.6617 15.965 23.7431 15.6971C23.8245 15.4292 23.9438 15.1859 24.0942 14.9811Z" fill="#FAEAEA"/>
</svg>
